<svg id="图层_1" data-name="图层 1" xmlns="http://www.w3.org/2000/svg" viewBox="0 0 566.93 566.93"><defs><style>.cls-1{fill:#18515a;}.cls-2{fill:#fff;}</style></defs><title>未标题-1</title><rect class="cls-1" width="566.93" height="566.93"/><rect class="cls-2" x="304.1" y="158.53" width="165.43" height="77.85" transform="translate(-26.32 331.35) rotate(-45)"/><polygon class="cls-2" points="176.95 228.42 225.12 276.58 293.93 345.39 280.16 359.15 225.12 304.11 176.95 352.27 176.95 352.28 232 407.32 280.16 455.49 328.33 407.32 342.09 393.56 390.26 345.39 342.09 297.23 273.28 228.42 176.95 132.09 176.95 228.42"/><polygon class="cls-2" points="487.29 247.94 487.29 179.55 409.44 257.4 409.44 325.79 487.29 247.94"/><polygon class="cls-2" points="157.49 332.86 157.49 112.63 79.64 190.47 79.64 255.01 157.49 332.86"/></svg>