<?xml version="1.0" encoding="utf-8"?>
<!-- Generator: Adobe Illustrator 23.0.0, SVG Export Plug-In . SVG Version: 6.00 Build 0)  -->
<svg version="1.1" id="图层_1" xmlns="http://www.w3.org/2000/svg" xmlns:xlink="http://www.w3.org/1999/xlink" x="0px" y="0px"
	 viewBox="0 0 566.9 566.9" style="enable-background:new 0 0 566.9 566.9;" xml:space="preserve">
<style type="text/css">
	.st0{fill:#1A535C;}
</style>
<title>未标题-1</title>
<rect x="304" y="99.8" transform="matrix(0.7071 -0.7071 0.7071 0.7071 15.1464 314.0607)" class="st0" width="165.4" height="77.8"/>
<polygon class="st0" points="176.8,169.7 225,217.9 293.8,286.7 280,300.5 225,245.4 176.8,293.6 176.8,293.6 231.9,348.6 
	280,396.8 328.2,348.6 342,334.9 390.1,286.7 342,238.5 273.1,169.7 176.8,73.4 "/>
<polygon class="st0" points="487.1,189.2 487.1,120.8 409.3,198.7 409.3,267.1 "/>
<polygon class="st0" points="157.4,274.1 157.4,53.9 79.5,131.8 79.5,196.3 "/>
<path class="st0" d="M105,452.5l-1.2,6.2h47.3l-5.4,35h14.6l-2.9,6.5H82.7v-6.5h53l1.4-9.6H89.3l5.6-31.6H82.8v-6.3h75.6l-2.8,6.3
	L105,452.5z M102.9,463.9l-2.7,14.9h37.7l2.3-14.9H102.9z"/>
<path class="st0" d="M198.4,469.5H190l12.3-24.1h11.1l-7.9,15.3h3.1v40h-10.3V469.5z M246.3,449.8h22.6l-2.7,4h-52.1v-4h22v-4.3
	h10.2V449.8z M214.1,459.4h54.8l-2.7,4.2h-52.1V459.4z M214.1,469.1h54.8l-2.7,4.2h-52.1V469.1z M267.9,500.8h-53.8v-22.3h43.6
	l-2.3,4.2h-31v13.7h33.3v-17.9h10.3V500.8z"/>
<path class="st0" d="M413.1,469.5h-8.4l12.3-24.1h11.1l-7.9,15.3h3.2v40h-10.3V469.5z M460.9,449.8h22.6l-2.7,4h-52.1v-4h22v-4.3
	h10.2V449.8z M428.7,459.4h54.8l-2.7,4.2h-52.1V459.4z M428.7,469.1h54.8l-2.7,4.2h-52.1V469.1z M482.5,500.8h-53.8v-22.3h43.6
	l-2.3,4.2h-31v13.7h33.3v-17.9h10.3V500.8z"/>
<path class="st0" d="M311.3,475.8h-11.8l13.4-30.3H325L311.3,475.8z M316.8,496.8h38.4l-1.8,4h-49v-6.7l18.7-28.3h13.3L316.8,496.8z
	 M351.9,449.9h-22.4l1.4-4.4H362l13.4,30.3h-11.8L351.9,449.9z M360.2,476.8l10.7,24h-11.9l-11-24H360.2z"/>
</svg>
