<svg id="图层_1" data-name="图层 1" xmlns="http://www.w3.org/2000/svg" viewBox="0 0 1368.73 582.06"><defs><style>.cls-1{fill:#18515a;}</style></defs><title>未标题-1</title><path class="cls-1" d="M220.11,211.45l-3.51,18.63H358.35l-16.2,105h43.74l-8.64,19.44H153.15V335.11h159l4.32-28.89H173.13l16.74-94.77H153.42v-18.9h226.8l-8.37,18.9Zm-6.21,34.29-8.1,44.82H318.93l7-44.82Z"/><path class="cls-1" d="M451.5,262.75l-25.38,0,37-72.39h33.25l-23.55,46h9.45V356.44H451.5Zm143.64-59.4h67.77l-8.1,12.15H498.48V203.35h65.88v-13h30.78Zm-96.66,28.89H662.91l-8.1,12.69H498.48Zm0,29.16H662.91l-8.1,12.69H498.48Zm161.46,95H498.48v-67H629.16l-7,12.69H529.26v41h99.9V289.48h30.78Z"/><path class="cls-1" d="M741.21,281.38H705.84l40.23-91h36.45Zm16.47,62.91H873l-5.4,12.15H720.69v-20l56.16-84.78h40ZM863,203.62H795.75l4-13.23h93.42l40.23,91H898.08Zm25.11,80.73,32.13,72.09H884.58l-32.94-72.09Z"/><path class="cls-1" d="M1192.38,343.75H1211l-7,12.69H978.81V343.75h16.74V284.62h166l-7.29,12.69H1137v46.44h24.57V284.62h30.78ZM981,220.09h227.88l-6.75,12.69H981Zm16.45,61,29.17-43.74H1059l-28.9,43.74Zm53.75-63.72H1019l-12.71-27H1039Zm-.27,126.36V297.31h-24.57v46.44Zm55.35,0V297.31h-24.57v46.44Zm24.57-106.38h32.67l28.89,43.74h-32.13Zm45.9-47-12.15,27H1131.9l12.69-27Z"/></svg>