<?xml version="1.0" encoding="utf-8"?>
<!-- Generator: Adobe Illustrator 23.0.0, SVG Export Plug-In . SVG Version: 6.00 Build 0)  -->
<svg version="1.1" id="图层_1" xmlns="http://www.w3.org/2000/svg" xmlns:xlink="http://www.w3.org/1999/xlink" x="0px" y="0px"
	 viewBox="0 0 1828.7 582.1" style="enable-background:new 0 0 1828.7 582.1;" xml:space="preserve">
<style type="text/css">
	.st0{fill:#1A535C;}
	.st1{fill:#FFFFFF;}
</style>
<title>未标题-1</title>
<rect x="1.3" class="st0" width="1827.4" height="582.1"/>
<rect x="304" y="145" transform="matrix(0.7071 -0.7071 0.7071 0.7071 -16.7719 327.2807)" class="st1" width="165.4" height="77.8"/>
<polygon class="st1" points="176.8,214.9 225,263 293.8,331.8 280,345.6 225,290.5 176.8,338.7 176.8,338.7 231.9,393.8 280,441.9 
	328.2,393.8 342,380 390.1,331.8 342,283.6 273.1,214.8 176.8,118.5 "/>
<polygon class="st1" points="487.1,234.4 487.1,166 409.3,243.8 409.3,312.2 "/>
<polygon class="st1" points="157.4,319.3 157.4,99.1 79.5,176.9 79.5,241.4 "/>
<path class="st1" d="M677.3,201.1l-3.5,18.6h141.8l-16.2,105h43.7l-8.7,19.4H610.4v-19.4h159l4.3-28.9H630.3l16.7-94.8h-36.4v-18.9
	h226.8l-8.4,18.9L677.3,201.1z M671.1,235.4l-8.1,44.8h113.2l7-44.8L671.1,235.4z"/>
<path class="st1" d="M908.7,252.4h-25.4l37-72.4h33.3L930,226h9.5v120.1h-30.8V252.4z M1052.4,193h67.8l-8.1,12.1H955.7V193h65.9
	v-13h30.8V193z M955.7,221.9h164.4l-8.1,12.7H955.7L955.7,221.9z M955.7,251.1h164.4l-8.1,12.7H955.7L955.7,251.1z M1117.2,346
	H955.7v-67h130.7l-7,12.7h-92.9v41h99.9v-53.6h30.8L1117.2,346z"/>
<path class="st1" d="M1454.7,252.4h-25.4l37-72.4h33.3l-23.5,46h9.5v120.1h-30.8V252.4z M1598.3,193h67.8l-8.1,12.1h-156.3V193h65.9
	v-13h30.8V193z M1501.7,221.9h164.4l-8.1,12.7h-156.3V221.9z M1501.7,251.1h164.4l-8.1,12.7h-156.3V251.1z M1663.1,346.1h-161.5v-67
	h130.7l-7,12.7h-92.9v41h99.9v-53.6h30.8L1663.1,346.1z"/>
<path class="st1" d="M1198.4,271h-35.4l40.2-91h36.4L1198.4,271z M1214.9,333.9h115.3l-5.4,12.1h-146.9v-20l56.2-84.8h40
	L1214.9,333.9z M1320.2,193.2H1253l4-13.2h93.4l40.2,91h-35.3L1320.2,193.2z M1345.3,274l32.1,72.1h-35.7l-32.9-72.1L1345.3,274z"/>
</svg>
