<svg xmlns="http://www.w3.org/2000/svg" data-name="图层 1" width="1368.08" height="582.06">
  <rect id="backgroundrect" width="100%" height="100%" fill="none"/>
  <defs>
    <style>
      .cls-1{fill:#1a535c}.cls-2{fill:#fff}
    </style>
  </defs>
  <g class="currentLayer">
    <path class="cls-1" id="svg_1" d="M-.65 0h1369.39v582.06H-.65z"/>
    <g>
      <path class="cls-2" d="M222.07 229.085l-3.51 18.63h141.75l-16.2 105h43.74l-8.64 19.44h-224.1v-19.41h159l4.32-28.89H175.09l16.74-94.77h-36.45v-18.9h226.8l-8.37 18.9zm-6.21 34.29l-8.13 44.82h113.16l7-44.82z" id="svg_11"/>
      <path class="cls-2" d="M453.46 280.385h-25.38l37-72.39h33.26l-23.55 46h9.45v120.08h-30.78zm143.64-59.4h67.77l-8.14 12.15H500.44v-12.15h65.88v-13h30.78zm-96.66 28.89h164.43l-8.14 12.69H500.44zm0 29.16h164.43l-8.14 12.69H500.44zm161.46 95H500.44v-67h130.68l-7 12.69h-92.9v41h99.9v-53.61h30.78z" id="svg_12"/>
      <path class="cls-2" d="M743.17 298.985H707.8l40.23-91h36.45zm16.47 62.91h115.29l-5.4 12.15H722.65v-20l56.16-84.78h40zm105.3-140.67h-67.21l4-13.24h93.42l40.23 91h-35.34zm25.11 80.76l32.13 72.09h-35.64l-32.94-72.09z" id="svg_14"/>
      <path class="cls-2" d="M1194.34 361.385h18.63l-7 12.69H980.73v-12.69h16.74v-59.13h166l-7.2 12.73h-17.28v46.4h24.57v-59.13h30.78zm-211.41-123.66h227.88l-6.75 12.69H982.93zm16.45 61l29.17-43.74h32.41l-28.9 43.74zm53.75-63.74h-32.2l-12.72-27h32.74zm-.27 126.36v-46.36h-24.57v46.4zm55.35 0v-46.36h-24.57v46.4zm24.57-106.36h32.67l28.89 43.74h-32.13zm45.9-47l-12.15 27h-32.67l12.69-27z" id="svg_5"/>
    </g>
  </g>
</svg>
