<svg id="图层_1" data-name="图层 1" xmlns="http://www.w3.org/2000/svg" viewBox="0 0 1828.73 582.06"><defs><style>.cls-1{fill:#18515a;}</style></defs><title>未标题-1</title><rect class="cls-1" x="303.96" y="144.96" width="165.43" height="77.85" transform="translate(-16.77 327.28) rotate(-45)"/><polygon class="cls-1" points="176.81 214.85 224.98 263.01 293.79 331.82 280.02 345.58 224.98 290.54 176.81 338.7 176.81 338.7 231.86 393.75 280.02 441.92 328.19 393.75 341.95 379.99 390.12 331.82 341.95 283.65 273.14 214.84 176.81 118.52 176.81 214.85"/><polygon class="cls-1" points="487.15 234.37 487.15 165.98 409.3 243.83 409.3 312.22 487.15 234.37"/><polygon class="cls-1" points="157.35 319.28 157.35 99.05 79.5 176.9 79.5 241.44 157.35 319.28"/><path class="cls-1" d="M679.46,201.1,676,219.73H817.7l-16.2,105h43.74L836.6,344.2H612.5V324.76h159l4.32-28.89H632.48l16.74-94.77H612.77V182.2h226.8l-8.37,18.9Zm-6.21,34.29-8.1,44.82H778.28l7-44.82Z"/><path class="cls-1" d="M910.85,252.4l-25.38,0,37-72.39h33.26l-23.55,46h9.45V346.09H910.85ZM1054.49,193h67.77l-8.1,12.15H957.83V193h65.88V180h30.78Zm-96.66,28.89h164.43l-8.1,12.69H957.83Zm0,29.16h164.43l-8.1,12.69H957.83Zm161.46,95H957.83v-67h130.68l-7,12.69H988.61v41h99.9V279.13h30.78Z"/><path class="cls-1" d="M1200.56,271h-35.37l40.23-91h36.45ZM1217,333.94h115.29l-5.4,12.15H1180v-20l56.16-84.78h40Zm105.3-140.67H1255.1l4.05-13.23h93.42l40.23,91h-35.37ZM1347.44,274l32.13,72.09h-35.64L1311,274Z"/><path class="cls-1" d="M1651.73,333.4h18.63l-7,12.69H1438.16V333.4h16.74V274.27h166L1613.66,287h-17.28V333.4H1621V274.27h30.78ZM1440.32,209.74H1668.2l-6.75,12.69H1440.32Zm16.45,61L1485.94,227h32.41l-28.9,43.74ZM1510.52,207h-32.2l-12.72-27h32.74Zm-.27,126.36V287h-24.57V333.4Zm55.35,0V287H1541V333.4ZM1590.17,227h32.67l28.89,43.74H1619.6Zm45.9-47-12.15,27h-32.67l12.69-27Z"/></svg>