<svg xmlns="http://www.w3.org/2000/svg" data-name="图层 1" width="1368.73" height="582.06">
  <rect id="backgroundrect" width="100%" height="100%" fill="none"/>
  <defs>
    <style>
      .cls-1{fill:#18515a}
    </style>
  </defs>
  <g class="currentLayer">
    <g>
      <path class="cls-1" d="M1194.67 361.385h18.62l-7 12.69H981.1v-12.69h16.74v-59.13h166l-7.29 12.69h-17.26v46.44h24.57v-59.13h30.78zm-211.38-123.66h227.88l-6.75 12.69H983.29zm16.45 61l29.17-43.74h32.38l-28.9 43.74zm53.75-63.72h-32.2l-12.71-27h32.71zm-.27 126.36v-46.42h-24.57v46.44zm55.35 0v-46.42H1084v46.44zm24.57-106.38h32.67l28.89 43.74h-32.13zm45.9-47l-12.15 27h-32.7l12.69-27z" id="svg_4"/>
      <path class="cls-1" d="M743.5 299.015h-35.37l40.23-91h36.45zm16.47 62.91h115.32l-5.4 12.15H722.98v-20l56.16-84.78h40zm105.32-140.67h-67.25l4-13.23h93.42l40.23 91h-35.32zm25.11 80.73l32.13 72.09h-35.66l-32.94-72.09z" id="svg_3"/>
      <path class="cls-1" d="M453.79 280.385h-25.38l37-72.39h33.25l-23.55 46h9.45v120.08h-30.77zm143.64-59.4h67.77l-8.1 12.15H500.77v-12.15h65.88v-13h30.78zm-96.66 28.89H665.2l-8.1 12.69H500.77zm0 29.16H665.2l-8.1 12.69H500.77zm161.46 95H500.77v-67h130.68l-7 12.69h-92.9v41h99.9v-53.61h30.78z" id="svg_2"/>
      <path class="cls-1" d="M222.4 229.085l-3.51 18.63h141.75l-16.2 105h43.74l-8.64 19.44h-224.1v-19.41h159l4.32-28.89H175.42l16.74-94.77h-36.45v-18.9h226.8l-8.37 18.9zm-6.21 34.29l-8.1 44.82h113.13l7-44.82z" id="svg_1"/>
    </g>
  </g>
</svg>
