<svg id="图层_1" data-name="图层 1" xmlns="http://www.w3.org/2000/svg" viewBox="0 0 1828.73 582.06"><defs><style>.cls-1{fill:#18515a;}.cls-2{fill:#fff;}</style></defs><title>未标题-1</title><rect class="cls-1" x="1.31" width="1827.43" height="582.06"/><rect class="cls-2" x="303.96" y="144.96" width="165.43" height="77.85" transform="translate(-16.77 327.28) rotate(-45)"/><polygon class="cls-2" points="176.81 214.85 224.98 263.01 293.79 331.82 280.02 345.58 224.98 290.54 176.81 338.7 176.81 338.7 231.86 393.75 280.02 441.92 328.19 393.75 341.95 379.99 390.12 331.82 341.95 283.65 273.14 214.84 176.81 118.52 176.81 214.85"/><polygon class="cls-2" points="487.15 234.37 487.15 165.98 409.3 243.83 409.3 312.22 487.15 234.37"/><polygon class="cls-2" points="157.35 319.28 157.35 99.05 79.5 176.9 79.5 241.44 157.35 319.28"/><path class="cls-2" d="M677.34,201.1l-3.51,18.63H815.58l-16.2,105h43.74l-8.65,19.44H610.38V324.76h159l4.31-28.89H630.35l16.74-94.77H610.64V182.2H837.45l-8.37,18.9Zm-6.21,34.29L663,280.21H776.16l7-44.82Z"/><path class="cls-2" d="M908.72,252.4l-25.38,0,37-72.39H953.6l-23.55,46h9.46V346.09H908.72ZM1052.36,193h67.77l-8.1,12.15H955.71V193h65.88V180h30.77Zm-96.65,28.89h164.42l-8.1,12.69H955.71Zm0,29.16h164.42l-8.1,12.69H955.71Zm161.46,95H955.71v-67h130.67l-7,12.69H986.49v41h99.89V279.13h30.79Z"/><path class="cls-2" d="M1198.43,271h-35.37l40.24-91h36.45Zm16.48,62.91H1330.2l-5.4,12.15H1177.92v-20l56.16-84.78h40Zm105.3-140.67H1253l4-13.23h93.43l40.22,91H1355.3Zm25.1,80.73,32.14,72.09H1341.8L1308.87,274Z"/><path class="cls-2" d="M1649.6,333.4h18.63l-7,12.69H1436V333.4h16.73V274.27h166.06L1611.54,287h-17.28V333.4h24.57V274.27h30.77ZM1438.19,209.74h227.89l-6.75,12.69H1438.19Zm16.46,61L1483.82,227h32.4l-28.89,43.74ZM1508.39,207H1476.2l-12.72-27h32.74Zm-.26,126.36V287h-24.58V333.4Zm55.34,0V287H1538.9V333.4ZM1588.05,227h32.67l28.88,43.74h-32.13Zm45.89-47-12.14,27h-32.67l12.68-27Z"/></svg>