<?xml version="1.0" encoding="utf-8"?>
<!-- Generator: Adobe Illustrator 23.0.0, SVG Export Plug-In . SVG Version: 6.00 Build 0)  -->
<svg version="1.1" id="图层_1" xmlns="http://www.w3.org/2000/svg" xmlns:xlink="http://www.w3.org/1999/xlink" x="0px" y="0px"
	 viewBox="0 0 1828.7 582.1" style="enable-background:new 0 0 1828.7 582.1;" xml:space="preserve">
<style type="text/css">
	.st0{fill:#1A535C;}
</style>
<title>未标题-1</title>
<rect x="304" y="145" transform="matrix(0.7071 -0.7071 0.7071 0.7071 -16.7719 327.2807)" class="st0" width="165.4" height="77.8"/>
<polygon class="st0" points="176.8,214.9 225,263 293.8,331.8 280,345.6 225,290.5 176.8,338.7 176.8,338.7 231.9,393.8 280,441.9 
	328.2,393.8 342,380 390.1,331.8 342,283.6 273.1,214.8 176.8,118.5 "/>
<polygon class="st0" points="487.1,234.4 487.1,166 409.3,243.8 409.3,312.2 "/>
<polygon class="st0" points="157.4,319.3 157.4,99.1 79.5,176.9 79.5,241.4 "/>
<path class="st0" d="M679.5,201.1l-3.5,18.6h141.7l-16.2,105h43.7l-8.6,19.5H612.5v-19.4h159l4.3-28.9H632.5l16.7-94.8h-36.4v-18.9
	h226.8l-8.4,18.9L679.5,201.1z M673.3,235.4l-8.1,44.8h113.1l7-44.8H673.3z"/>
<path class="st0" d="M910.8,252.4h-25.4l37-72.4h33.3l-23.5,46h9.5v120.1h-30.8V252.4z M1054.5,193h67.8l-8.1,12.1H957.8V193h65.9
	v-13h30.8V193z M957.8,221.9h164.4l-8.1,12.7H957.8L957.8,221.9z M957.8,251.1h164.4l-8.1,12.7H957.8L957.8,251.1z M1119.3,346
	H957.8v-67h130.7l-7,12.7h-92.9v41h99.9v-53.6h30.8L1119.3,346z"/>
<path class="st0" d="M1456.8,252.4h-25.4l37-72.4h33.3l-23.6,46h9.5v120.1h-30.8V252.4z M1600.4,193h67.8l-8.1,12.1h-156.3V193h65.9
	v-13h30.8V193z M1503.8,221.9h164.4l-8.1,12.7h-156.3L1503.8,221.9z M1503.8,251.1h164.4l-8.1,12.7h-156.3L1503.8,251.1z
	 M1665.2,346h-161.5v-67h130.7l-7,12.7h-92.9v41h99.9v-53.6h30.8L1665.2,346z"/>
<path class="st0" d="M1200.6,271h-35.4l40.2-91h36.4L1200.6,271z M1217,333.9h115.3l-5.4,12.1H1180v-20l56.2-84.8h40L1217,333.9z
	 M1322.3,193.3h-67.2l4.1-13.2h93.4l40.2,91h-35.4L1322.3,193.3z M1347.4,274l32.1,72.1h-35.6L1311,274H1347.4z"/>
</svg>
