<svg id="图层_1" data-name="图层 1" xmlns="http://www.w3.org/2000/svg" viewBox="0 0 1368.08 582.06"><defs><style>.cls-1{fill:#18515a;}.cls-2{fill:#fff;}</style></defs><title>未标题-1</title><rect class="cls-1" x="-0.65" width="1369.39" height="582.06"/><path class="cls-2" d="M217.34,201.1l-3.51,18.63H355.58l-16.2,105h43.74l-8.64,19.44H150.38V324.76h159l4.32-28.89H170.36L187.1,201.1H150.65V182.2h226.8l-8.37,18.9Zm-6.21,34.29L203,280.21H316.16l7-44.82Z"/><path class="cls-2" d="M448.73,252.4l-25.38,0,37-72.39h33.26l-23.55,46h9.45V346.09H448.73ZM592.37,193h67.77L652,205.15H495.71V193h65.88V180h30.78Zm-96.66,28.89H660.14L652,234.58H495.71Zm0,29.16H660.14L652,263.74H495.71Zm161.46,95H495.71v-67H626.39l-7,12.69H526.49v41h99.9V279.13h30.78Z"/><path class="cls-2" d="M738.44,271H703.07l40.23-91h36.45Zm16.47,62.91H870.2l-5.4,12.15H717.92v-20l56.16-84.78h40Zm105.3-140.67H793L797,180h93.42l40.23,91H895.31ZM885.32,274l32.13,72.09H881.81L848.87,274Z"/><path class="cls-2" d="M1189.61,333.4h18.63l-7,12.69H976V333.4h16.74V274.27h166L1151.54,287h-17.28V333.4h24.57V274.27h30.78ZM978.2,209.74h227.88l-6.75,12.69H978.2Zm16.45,61L1023.82,227h32.41l-28.9,43.74ZM1048.4,207h-32.2l-12.72-27h32.74Zm-.27,126.36V287h-24.57V333.4Zm55.35,0V287h-24.57V333.4ZM1128.05,227h32.67l28.89,43.74h-32.13Zm45.9-47-12.15,27h-32.67l12.69-27Z"/></svg>