<?xml version="1.0" encoding="utf-8"?>
<!-- Generator: Adobe Illustrator 23.0.0, SVG Export Plug-In . SVG Version: 6.00 Build 0)  -->
<svg version="1.1" id="图层_1" xmlns="http://www.w3.org/2000/svg" xmlns:xlink="http://www.w3.org/1999/xlink" x="0px" y="0px"
	 viewBox="0 0 1368.1 582.1" style="enable-background:new 0 0 1368.1 582.1;" xml:space="preserve">
<style type="text/css">
	.st0{fill:none;}
	.st1{fill:#1A535C;}
	.st2{fill:#FFFFFF;}
</style>
<rect id="backgroundrect" class="st0" width="1368.1" height="582.1"/>
<g>
	<path id="svg_1" class="st1" d="M-0.6,0h1369.4v582.1H-0.6V0z"/>
	<g>
		<path id="svg_11" class="st2" d="M222.1,229.1l-3.5,18.6h141.7l-16.2,105h43.7l-8.6,19.4H155.1v-19.4h159l4.3-28.9H175.1
			l16.7-94.8h-36.4v-18.9h226.8l-8.4,18.9L222.1,229.1z M215.9,263.4l-8.1,44.8h113.2l7-44.8H215.9z"/>
		<path id="svg_12" class="st2" d="M453.5,280.4h-25.4l37-72.4h33.3l-23.5,46h9.5v120.1h-30.8L453.5,280.4z M597.1,221h67.8
			l-8.1,12.1H500.4V221h65.9v-13h30.8L597.1,221z M500.4,249.9h164.4l-8.1,12.7H500.4L500.4,249.9z M500.4,279h164.4l-8.1,12.7
			H500.4L500.4,279z M661.9,374H500.4v-67h130.7l-7,12.7h-92.9v41h99.9v-53.6h30.8L661.9,374z"/>
		<path id="svg_12_1_" class="st2" d="M999.4,280.4H974l37-72.4h33.3l-23.5,46h9.4v120.1h-30.8L999.4,280.4z M1143,221h67.8
			l-8.1,12.1h-156.3V221h65.9v-13h30.8L1143,221z M1046.4,249.9h164.4l-8.1,12.7h-156.3V249.9z M1046.4,279h164.4l-8.1,12.7h-156.3
			V279z M1207.8,374h-161.5v-67h130.7l-7,12.7h-92.9v41h99.9v-53.6h30.8L1207.8,374z"/>
		<path id="svg_14" class="st2" d="M743.2,299h-35.4l40.2-91h36.5L743.2,299z M759.6,361.9h115.3l-5.4,12.1H722.7v-20l56.2-84.8h40
			L759.6,361.9z M864.9,221.2h-67.2l4-13.2h93.4l40.2,91H900L864.9,221.2z M890,302l32.1,72.1h-35.6L853.6,302H890z"/>
	</g>
</g>
</svg>
