<svg id="图层_1" data-name="图层 1" xmlns="http://www.w3.org/2000/svg" viewBox="0 0 566.93 566.93"><defs><style>.cls-1{fill:#18515a;}</style></defs><title>未标题-1</title><rect class="cls-1" x="303.96" y="99.82" width="165.43" height="77.85" transform="translate(15.15 314.06) rotate(-45)"/><polygon class="cls-1" points="176.81 169.71 224.98 217.88 293.79 286.68 280.02 300.45 224.98 245.4 176.81 293.56 176.81 293.57 231.86 348.61 280.02 396.78 328.19 348.61 341.95 334.85 390.12 286.68 341.95 238.52 273.14 169.71 176.81 73.38 176.81 169.71"/><polygon class="cls-1" points="487.15 189.24 487.15 120.85 409.3 198.69 409.3 267.08 487.15 189.24"/><polygon class="cls-1" points="157.35 274.15 157.35 53.92 79.5 131.77 79.5 196.3 157.35 274.15"/><path class="cls-1" d="M105,452.45l-1.17,6.21h47.25l-5.4,35h14.58l-2.88,6.48H82.68v-6.48h53l1.44-9.63H89.34l5.58-31.59H82.77v-6.3h75.6l-2.79,6.3Zm-2.07,11.43-2.7,14.94h37.71l2.34-14.94Z"/><path class="cls-1" d="M198.42,469.55H190l12.33-24.13h11.09l-7.85,15.33h3.15v40H198.42Zm47.88-19.8h22.59l-2.7,4.05H214.08v-4.05h22v-4.32H246.3Zm-32.22,9.63h54.81l-2.7,4.23H214.08Zm0,9.72h54.81l-2.7,4.23H214.08Zm53.82,31.68H214.08V478.46h43.56l-2.34,4.23h-31v13.68h33.3V478.46H267.9Z"/><path class="cls-1" d="M311.28,475.76H299.49l13.41-30.33h12.15Zm5.49,21H355.2l-1.8,4h-49v-6.66l18.72-28.26h13.32Zm35.1-46.89H329.46l1.35-4.41H362l13.41,30.33H363.57Zm8.37,26.91,10.71,24H359.07l-11-24Z"/><path class="cls-1" d="M478,496.55h6.21l-2.34,4.23H406.77v-4.23h5.58V476.84H467.7l-2.43,4.23h-5.76v15.48h8.19V476.84H478Zm-70.47-41.22h76l-2.25,4.23H407.49ZM413,475.67l9.72-14.58H433.5l-9.64,14.58Zm17.92-21.24H420.15l-4.23-9h10.91Zm-.09,42.12V481.07h-8.19v15.48Zm18.45,0V481.07h-8.19v15.48Zm8.19-35.46h10.89L478,475.67H467.25Zm15.3-15.66-4.05,9H457.8l4.23-9Z"/></svg>