<?xml version="1.0" encoding="utf-8"?>
<!-- Generator: Adobe Illustrator 23.0.0, SVG Export Plug-In . SVG Version: 6.00 Build 0)  -->
<svg version="1.1" id="图层_1" xmlns="http://www.w3.org/2000/svg" xmlns:xlink="http://www.w3.org/1999/xlink" x="0px" y="0px"
	 viewBox="0 0 1368.7 582.1" style="enable-background:new 0 0 1368.7 582.1;" xml:space="preserve">
<style type="text/css">
	.st0{fill:none;}
	.st1{fill:#1A535C;}
</style>
<rect id="backgroundrect" class="st0" width="1368.7" height="582.1"/>
<g>
	<g>
		<path id="svg_3" class="st1" d="M743.5,299h-35.4l40.2-91h36.5L743.5,299z M760,361.9h115.3l-5.4,12.1H723v-20l56.2-84.8h40
			L760,361.9z M865.3,221.3H798l4-13.2h93.4l40.2,91h-35.3L865.3,221.3z M890.4,302l32.1,72.1h-35.7L853.9,302H890.4z"/>
		<path id="svg_2" class="st1" d="M453.8,280.4h-25.4l37-72.4h33.3l-23.5,46h9.5v120.1h-30.8L453.8,280.4z M597.4,221h67.8
			l-8.1,12.1H500.8V221h65.9v-13h30.8V221z M500.8,249.9h164.4l-8.1,12.7H500.8V249.9z M500.8,279h164.4l-8.1,12.7H500.8V279z
			 M662.2,374H500.8v-67h130.7l-7,12.7h-92.9v41h99.9v-53.6h30.8V374z"/>
		<path id="svg_2_2_" class="st1" d="M999.8,280.4h-25.4l37-72.4h33.3l-23.5,46h9.4v120.1h-30.8L999.8,280.4z M1143.4,221h67.8
			l-8.1,12.1h-156.3V221h65.9v-13h30.8V221z M1046.7,249.9h164.4l-8.1,12.7h-156.3V249.9z M1046.7,279h164.4l-8.1,12.7h-156.3V279z
			 M1208.2,374h-161.5v-67h130.7l-7,12.7h-92.9v41h99.9v-53.6h30.8V374z"/>
		<path id="svg_1" class="st1" d="M222.4,229.1l-3.5,18.6h141.8l-16.2,105h43.7l-8.6,19.4H155.4v-19.4h159l4.3-28.9H175.4l16.7-94.8
			h-36.4v-18.9h226.8l-8.4,18.9L222.4,229.1z M216.2,263.4l-8.1,44.8h113.1l7-44.8H216.2z"/>
	</g>
</g>
</svg>
